<?xml version="1.0" encoding="utf-8"?>
<!-- Generator: Adobe Illustrator 16.0.0, SVG Export Plug-In . SVG Version: 6.00 Build 0)  -->
<!DOCTYPE svg PUBLIC "-//W3C//DTD SVG 1.1//EN" "http://www.w3.org/Graphics/SVG/1.1/DTD/svg11.dtd">
<svg version="1.1" class="detalhes_polo" xmlns="http://www.w3.org/2000/svg" xmlns:xlink="http://www.w3.org/1999/xlink" x="0px" y="0px" 
	width="371.92px" height="480px" viewBox="0 0 371.92 480" enable-background="new 0 0 371.92 480" xml:space="preserve">
	<g class="vies">
		<path d="M90.5,191.7c-10.4-40.3-25.4-48.5-28.8-49.9c0.1,0.8,0.2,1.7,0.4,2.5c4.5,2.5,17.5,12.7,26.5,48.6
		c10.1,39.9,17.2,120.6-5.6,278.6c0.6,0.2,1.3,0.4,2,0.6C108,312.8,100.7,231.8,90.5,191.7z"/>
		<path d="M284.8,198.9c7.3-31.8,17.1-46.1,22.6-51.9c0.2-1.2,0.3-2.3,0.4-3.4c-5.1,4.6-16.4,18.3-24.8,54.2
		c-9.7,41.9-16.8,123.5,3.9,274.9c0.7-0.2,1.3-0.4,2-0.7C268.3,321.8,275.3,240.7,284.8,198.9z"/>
	</g>
	<g class="manga">
		<path d="M39.1,66.6L39.1,66.6c-7.4,7.2-24.6,28.4-31.9,74.6l-6.8,57.1c0,0-1.5,2.4,1.5,4.4
		c3.1,2,35.2,15.6,56.8,12.2c0,0,9.3,0,9.4-5L69,194c0,0,3.8-5.6,1.3-19.2c0,0-1.5-6.1-1.1-8.2c-5.5-15.2-17.7-55.2-21.5-66.7
		C43.8,87.1,41,75.9,39.1,66.6z"/>
		<path d="M302.7,168c0.1,0.1-3.1,12.8-2.4,19.4c0,0,1,5.7,2.4,7l0.7,15c0,0-0.5,5.6,9.4,6.1c0,0,11.6,1.5,32.6-3.3
		c0,0,14.2-4,25.3-9.4c0,0,1.8-0.6,0.9-3.9c-1-3.3-2.2-16.6-2.2-16.6s-5.7-53-9.4-65.6c-3.7-12.6-14.9-40-26.4-49.3
		c0,0-0.5-1-2.9-2.9c-0.6,11.1-4.3,23.5-4.3,23.5L312.4,137c-8.1,19-10,28.7-10.5,30.8c0.1,0.1,0.1,0.2,0.2,0.2l0.2-0.7
		C302.3,167.4,302.6,168,302.7,168z"/>
	</g>
	<g class="manga_raglan">
		<path d="M300.5,187.5c0,0,1,5.7,2.4,7l0.6,15.1c0,0-0.5,5.6,9.4,6c0,0,11.6,1.6,32.6-3.3c0,0,14.2-4,25.3-9.4
		c0,0,1.9-0.6,1-4s-2.2-16.5-2.2-16.5s-5.7-52.9-9.4-65.7s-14.8-40.1-26.4-49.3c0,0-2.9-5.4-24-13.5s-56-19.9-56-19.9l-6.4-5.9
		c0,0-8.9-21.5-22.7-24.6c0,0-39-7.8-71.1-0.6c0,0-18.9,0.3-25.1,18.3c0,0-4.3,11.9-10.5,12.7c-6.2,0.6-72.3,25.1-75.4,29.7
		c0,0-25.9,18-35.5,77.6l-6.8,57.1c0,0-1.6,2.4,1.6,4.5c3,1.9,35.1,15.6,56.8,12.2c0,0,9.2,0,9.4-5.1l0.8-15.9c0,0,3.8-5.6,1.3-19.2
		c0,0-1.6-6.4-1.1-8.3c0,0-26.3-50.6,16.5-81.9c0,0,25.1-19.9,56.8-20l88.1-0.2c0,0,50.6,4.3,71.1,45.5c0,0,14,13.5,1.3,58.2
		C303,168.2,299.8,180.9,300.5,187.5z"/>
	</g>
	<g class="friso">
		<path d="M59.5,198.9c0,0-19.1,1.1-37.6-5.2c-12-4.1-17.6-7.6-20.1-9.5l-1.4,11.3c0,0-0.7,1.1-0.2,2.4l1.3-10.7
		c2.5,1.9,8,5.4,20.1,9.5c18.5,6.3,37.6,5.2,37.6,5.2s7.4-0.3,9.4-3.4l-0.5,9.4c0.1-0.3,0.2-0.6,0.2-1l0.6-11.4
		C67,198.6,59.5,198.9,59.5,198.9z"/>
		<path d="M303.3,207.8l-0.4-9c1,1.2,3.2,2.9,7.9,3.3c7.8,0.7,17-0.1,31.9-3.1c0,0,13.8-2.4,27.2-11
		c0.4,3.8,1,8.6,1.5,10.7c0.2-0.6,0.2-1.4-0.2-2.7c-0.6-1.9-1.2-7-1.6-11c-13.5,8.6-27.2,11-27.2,11c-14.9,2.9-24.1,3.8-31.9,3.1
		c-4.7-0.4-6.9-2.1-7.9-3.3l0.5,10.7C303.1,206.6,303.1,207.1,303.3,207.8z"/>
	</g>
	<g class="punho">
		<path d="M302.974,198.872l0.459,10.703c0,0-0.477,5.615,9.402,6.11c0,0,11.596,1.524,32.576-3.278c0,0,14.201-4.041,25.352-9.386
		c0,0,1.844-0.587,0.877-3.911c-0.572-1.895-1.193-6.999-1.641-11.041c-13.455,8.639-27.215,11.041-27.215,11.041
		c-14.871,2.942-24.096,3.752-31.908,3.054C306.216,201.734,304.005,200.11,302.974,198.872z"/>
		<path d="M1.652,187.166l-1.353,11.277c0,0-1.526,2.404,1.544,4.374c3.054,1.955,35.182,15.587,56.816,12.217
		c0,0,9.289,0,9.399-5.026l0.621-11.421c-1.957,3.054-9.369,3.356-9.369,3.356s-19.118,1.08-37.586-5.233
		C9.686,192.588,4.103,189.09,1.652,187.166z"/>
	</g>
	<g class="golas">
		<path class="fundo_gola" d="M137.434,18.933v58.025l28.32-1.75c0,0,22.572,21.225,23.556,21.225l49.471-36.365V19.331L137.434,18.933z"/>
		<path class="gola" d="M264.099,94.609c0,0-0.221-37.062-10.688-60.616l-6.141-5.695c0,0-8.846-21.489-22.729-24.654
		c0,0-38.906-7.747-71.02-0.651c0,0-18.912,0.333-25.147,18.323c0,0-3.26,8.955-8.081,11.818c-1.59,5.025-3.419,13.153-3.722,24.4
		c-0.54,20.391,2.195,35.772,2.195,35.772l0.43,0.651l8.526-4.58c0,0,21.856-10.91,34.31-13.09l2.623-0.429l1.097-0.652
		c0,0-2.736-3.499-2.848-3.721c-0.095-0.207-3.483-2.609-3.483-2.609s-6.998-6.044-12.819-16.541
		c-3.563-6.442-6.553-19.087-5.965-21.377l0.302-3.277l27.66-1.782l30.377-0.222l32.783,1.971c0,0,2.689,8.716-2.846,25.083
		c0,0-3.42,9.083-6.557,12.646c-3.133,3.563-3.941,4.74-4.818,9.83v7.633c0,0,24.988,4.136,45.906,12.422L264.099,94.609z"/>
		<path class="gola_2" d="M224.983,31.782c0,0,4.695,0.064,7.367,0.047c-0.16-2.767-0.59-4.182-0.59-4.182l-32.783-1.971l-30.377,0.222
		l-28.423,1.75l-0.207,2.402c-0.096,0.397-0.127,0.906-0.112,1.495l32.45-0.416C172.308,31.128,216.89,30.971,224.983,31.782z"/>
		<path class="gola_3" d="M159.853,69.304l4.151,6.33c4.739,7.125,5.472,23.048,10.052,29.521c2.004,2.815,1.035,8.034,1.098,8.145
		c0.047,0.112,0,19.707,0,19.707v29.49c0.381-8.557,0.874-20.216,0.874-23.382c0-5.168,0.875-22.681,0.875-22.681
		c0.731-4.471,2.465-9.354,3.706-12.87c0.844-2.386,5.947-6.966,9.18-9.718l-0.211,0.111l-0.441-0.874
		c0,0-7.206-9.895-10.704-12.868c-3.5-2.975-5.663-3.594-8.956-4.803c-3.309-1.192-5.901-3.929-5.901-3.929L159.853,69.304z
		M192.489,91.57l-0.777,0.684l0.777-0.621V91.57z"/>
		<path class="gola_4" d="M175.155,162.496v13.918c0.063,3.197,1.097,2.623,1.097,2.623h18.133c1.461-0.223,1.525-1.305,1.525-1.305
		s0.143-33.894,0.445-59.344c0.287-25.451,5.455-28.79,5.455-28.79c8.303-2.353,14.648-2.402,14.648-2.402l0.227-0.445l0.857-4.135
		v-8.081c0.127-4.087,5.043-9.591,5.043-9.591l-1.324,0.875l-2.176,2.608l-2.4,2.625l-0.879,0.651
		c-1.35,0.605-1.748,1.527-1.748,1.527l-0.879,1.303c-2.385,0.987-4.371,3.499-4.371,3.499l-3.277,2.402
		c-4.533,3.771-9.959,8.446-13.043,11.135v0.063l-0.777,0.62l-1.701,1.479l-0.225,0.112c-3.229,2.752-8.333,7.332-9.177,9.718
		c-1.241,3.515-2.975,8.399-3.706,12.87c0,0-0.875,17.513-0.875,22.681C176.027,142.28,175.534,153.938,175.155,162.496z"/>
	</g>
	<g class="botao">
		<path d="M169.903,80.214c0,0-2.003,1.78-1.303,3.276c0.684,1.48,1.448,2.72,3.707,3.708
		c2.257,0.985,3.07,0.223,3.07,0.223l1.305-1.75c0,0,0.62-1.161-0.431-2.402C175.188,82.027,173.038,79.165,169.903,80.214z"/>
		<path d="M186.081,105.298c0,0-3.102,2.656-1.32,5.678c1.796,3.022,4.373,2.609,4.373,2.609
		s1.893-0.541,2.404-1.306c0,0,3.068-2.147,0-6.331C191.536,105.95,189.722,103.518,186.081,105.298z"/>
		<path d="M184.553,138.019c0,0-4.199,3.1-1.526,6.981c0,0,2.179,2.18,5.454,1.32c0,0,3.469-1.431,2.18-5.899
		C190.661,140.418,189.644,136.602,184.553,138.019z"/>
	</g>
</svg>




<svg version="1.1" class="detalhes_camisa" xmlns="http://www.w3.org/2000/svg" xmlns:xlink="http://www.w3.org/1999/xlink" x="0px" y="0px"
	width="355.9px" height="500px" viewBox="0 0 355.9 500" enable-background="new 0 0 355.9 500" xml:space="preserve" 
	shape-rendering="geometricPrecision" text-rendering="geometricPrecision" image-rendering="optimizeQuality" fill-rule="evenodd" clip-rule="evenodd">	
	<g class="punho">
		<path fill= "#fff00000" id="punho2" d="M56.7,401.5c-3.4-0.2-9.7-0.5-16.7-0.8c-7-0.3-14.7-0.5-20.3-0.8c-5.6-0.2-9.3-0.5-12.9-0.8
		c0,0,0,0-0.8,0c-0.8,0-2.3-0.1-3.3,0c-1,0.1-1.6,0.4-2,0.8c-0.4,0.4-0.6,1-0.7,1.6c-0.1,0.6-0.2,1.3,0,3.6c0.2,2.3,0.6,6.2,1,10.6
		c0.4,4.4,0.9,9.2,1.3,12.1c0.4,2.9,0.8,3.9,1.4,4.4c0.6,0.5,1.4,0.6,4,0.8s7,0.3,12.6,0.5c5.7,0.2,12.7,0.4,19.3,0.5
		c6.7,0.1,13,0.2,16.3,0.2c3.3,0,3.4,0,3.8-0.1c0.3-0.1,0.9-0.4,1.4-0.7c0.5-0.3,1-0.8,1.4-1.3c0.3-0.5,0.5-0.9,0.9-4.1
		c0.4-3.2,1-9,1.4-13.3c0.4-4.2,0.6-6.8,0.7-8.4c0.1-1.6,0.1-2.2,0.1-2.6c0-0.4-0.1-0.5-0.5-0.7s-1.3-0.7-2-1
		c-0.6-0.2-1-0.3-1.3-0.4c-0.2,0.1-0.4,0.1-0.7,0.1C60.7,401.7,60.1,401.7,56.7,401.5z M290.7,406.8c0.2,3.6,0.7,10.4,1.2,15
		s0.8,6.9,1.1,8.3c0.3,1.3,0.5,1.6,1,2c0.5,0.4,1.2,0.8,1.9,1c0.7,0.2,1.3,0.2,4.6,0c3.3-0.2,9.3-0.6,14.5-0.9
		c5.2-0.3,9.5-0.6,14.8-0.9c5.3-0.3,11.4-0.7,15.1-1c3.6-0.3,4.7-0.5,5.5-0.9c0.8-0.4,1.3-1.1,1.9-3.9c0.7-2.9,1.5-8,2.1-12.3
		c0.6-4.3,1.1-7.8,1.3-9.8c0.3-2,0.3-2.7,0.2-3.3c-0.1-0.6-0.2-1.3-0.4-1.8c-0.2-0.5-0.4-0.8-1.1-1c-0.7-0.2-2-0.3-3.2-0.3
		c-0.8,0-1.5,0-2.1,0c-0.7,0.1-1.4,0.1-2.2,0.2c-2.1,0.2-4.8,0.3-10.7,0.8c-5.9,0.4-15,1.1-22,1.7c-6.9,0.5-11.7,0.8-15.2,1.1
		c-2.2,0.2-3.8,0.3-5.3,0.5c-0.4,0.2-1.1,0.5-1.6,0.7c-0.6,0.3-1,0.5-1.3,0.7C290.6,403,290.5,403.3,290.7,406.8z"/>
	</g>	
	<g class="golas">
		<path  fill="#fff" id="golaE" d="M196.3,71.6c1.9-1.9,5.2-5.6,8.4-9.7c3.3-4.1,6.4-8.6,8.8-12.3c2.3-3.6,3.8-6.4,4.8-8.8
		c1-2.4,1.5-4.5,1.8-6.3c0.3-1.8,0.3-3.5,0-4.8c-0.2-1.4-0.7-2.4-1.1-3.2c-0.3-0.6-0.6-0.9-0.8-1.2c-0.1-0.1-0.1-0.1-0.2-0.2
		c-0.1-0.2-0.2-0.4-0.3-0.9c-0.3-1.1-1-3.2-1.7-5.4s-1.1-4.3-2.3-6.3c-1.2-2-3.1-3.8-4.8-5.2c-1.7-1.4-3.2-2.3-4.9-3.1
		c-1.7-0.8-3.6-1.5-5.8-2.1c-2.2-0.6-4.6-0.9-7-1.3c-2.4-0.3-4.9-0.6-8.8-0.7s-9,0-12.9,0.1c-3.9,0.1-6.6,0.4-9.4,0.8
		c-2.8,0.4-5.8,1.1-8.6,2c-2.8,0.9-5.4,2.2-7.4,3.5s-3.5,2.9-4.6,4.3c-1.1,1.4-1.7,2.6-2.2,4.1c-0.5,1.4-0.9,3.1-1.3,4.9
		c-0.5,1.7-1,3.5-1.3,4.5c-0.1,0.2-0.1,0.4-0.2,0.6c-0.1,0.2-0.1,0.3-0.2,0.4c-0.7,1.2-1.3,2.5-1.8,3.5c-0.5,1.2-0.7,2.1-0.5,4.1
		c0.2,1.9,0.8,4.8,2.4,8.1c1.6,3.2,4.2,6.8,6.9,10.3c2.6,3.5,5.3,7,8.4,10.4c3.1,3.4,6.8,6.9,8.8,8.8c2,1.9,2.4,2.2,2.8,2.3
		c0.4,0.1,0.8,0.1,1.1-0.1c0.3-0.2,0.5-0.4,1.1-2.5c0.3-1.2,0.8-2.9,1.4-4.8c0.4-1.4,0.9-3,1.3-4.5c1.1-3.5,2.3-6.8,3.4-9.4
		c1.1-2.6,2.1-4.4,2.9-5.6c0.7-1.1,1.1-1.6,1.4-1.7c0.3-0.2,0.4-0.1,1,0.1c0.6,0.2,1.6,0.6,2.3,0.7s0.9,0,1.3-0.1
		c0.4,0,0.8,0,1.1,0c0.2,0,0.3,0,0.6,0.3c0.1,0.1,0.3,0.3,0.5,0.6c0.7,0.8,2.1,2.5,3.5,5c1.4,2.6,2.9,6,4.3,9.8
		c1.4,3.8,2.8,8,3.7,10.2c0.9,2.2,1.2,2.6,1.6,2.7c0.2,0.1,0.5,0,1.1-0.5C195.1,72.7,195.6,72.3,196.3,71.6z M178.6,44.4
		c-0.2,0.1-0.3,0.1-0.6,0.1c-0.2,0-0.5-0.1-0.9-0.2c-0.3-0.1-0.7-0.3-1.1-0.4c-0.4-0.2-0.7-0.4-1-0.5c-0.3-0.2-0.6-0.3-0.9-0.4
		c-0.3-0.1-0.7-0.3-2.3-1.1c-1.6-0.8-4.4-2.3-7.5-4.1s-6.8-3.9-10-5.9c-3.2-2-6-3.9-8.1-5.5c-2-1.5-3.3-2.7-4.3-3.9
		c-0.1-0.1-0.1-0.2-0.2-0.2c-1-1.2-1.6-2.3-1.9-3.5c-0.4-1.1-0.5-2.3-0.4-3.3c0.1-1,0.6-2,1.3-3c0.7-1,1.7-2,2.8-3
		c1.1-1,2.3-1.9,4-2.8c1.7-1,3.9-2,6.6-2.9c2.7-0.9,5.9-1.7,10.3-2.1c4.4-0.4,9.9-0.5,14.4-0.5c4.5,0,7.8,0.2,11,0.7
		c3.1,0.4,6.1,1.1,8.7,1.9c2.6,0.8,4.9,1.8,7,3.1c2,1.3,3.8,2.9,5,4.3c1.2,1.5,1.9,2.8,2.3,4c0.4,1.1,0.4,2,0.1,3
		c-0.3,1-0.8,2-1.5,2.9c-0.4,0.6-0.8,1.1-1.4,1.7c-0.3,0.4-0.8,0.8-1.3,1.2c-1.5,1.3-3.7,3.3-6.7,5.4c-2.9,2.1-6.5,4.4-9.9,6.5
		s-6.4,4.1-8.5,5.4c-2.1,1.3-3.1,1.9-3.7,2.2c-0.6,0.4-0.7,0.6-0.9,0.7C178.9,44.3,178.7,44.4,178.6,44.4z"/>
		<path class="gola_2" id="golaI" fill="#fff" d="M175.7,19.6c6.1,0,11.6,0.1,15.8,0.3c4.1,0.2,6.8,0.5,9.3,0.8c2.5,0.3,4.9,0.7,6.5,1.1
		c1.2,0.3,2,0.6,2.6,0.8c0.6-0.6,1-1.1,1.4-1.7c0.6-0.9,1.2-1.9,1.5-2.9c0.3-1,0.3-1.9-0.1-3c-0.4-1.1-1.1-2.5-2.3-4
		c-1.2-1.5-3-3-5-4.3c-2-1.3-4.4-2.3-7-3.1c-2.6-0.8-5.5-1.5-8.7-1.9c-3.1-0.4-6.5-0.6-11-0.7c-4.5,0-10,0-14.4,0.5
		c-4.4,0.4-7.6,1.2-10.3,2.1c-2.7,0.9-4.9,1.9-6.6,2.9c-1.7,1-2.9,1.8-4,2.8c-1.1,1-2.1,2-2.8,3c-0.7,1-1.1,1.9-1.3,3
		c-0.1,1,0,2.2,0.4,3.3c0.4,1.1,0.9,2.3,1.9,3.5c0.1,0.1,0.1,0.2,0.2,0.2c1.3-0.3,2.8-0.6,4.8-1c2.6-0.5,6.2-1,11.2-1.4
		C163,19.7,169.6,19.6,175.7,19.6z"/>
	</g>	
	<g class="botao" >
		<path fill="#fff" id="botao" d="M179.4,383c-2,0-3.7,1.6-3.7,3.6c0,2,1.6,3.6,3.7,3.6s3.7-1.6,3.7-3.6
		C183.1,384.6,181.4,383,179.4,383z M178.5,52.7c0,2,1.6,3.6,3.7,3.6c1.6,0,3-1,3.5-2.4c-0.5-1.1-1-2.2-1.5-3.1
		c-0.3-0.6-0.6-1.1-0.9-1.6c-0.3-0.1-0.7-0.1-1-0.1C180.2,49.1,178.5,50.7,178.5,52.7z M181.3,97.8c2.1,0,3.9-1.7,3.9-3.8
		c0-2.1-1.7-3.8-3.9-3.8c-2.1,0-3.9,1.7-3.9,3.8C177.4,96.1,179.2,97.8,181.3,97.8z M180.9,151.6c2.1,0,3.7-1.7,3.7-3.7
		s-1.7-3.7-3.7-3.7c-2.1,0-3.7,1.7-3.7,3.7S178.9,151.6,180.9,151.6z M180,213.3c2.1,0,3.8-1.6,3.8-3.7c0-2-1.7-3.7-3.8-3.7
		c-2.1,0-3.8,1.6-3.8,3.7C176.2,211.7,177.9,213.3,180,213.3z M179.8,273.9c2.1,0,3.8-1.6,3.8-3.7c0-2-1.7-3.7-3.8-3.7
		c-2.1,0-3.8,1.6-3.8,3.7C176.1,272.2,177.8,273.9,179.8,273.9z M179.5,332.9c2.1,0,3.8-1.6,3.8-3.6c0-2-1.7-3.6-3.8-3.6
		c-2.1,0-3.8,1.6-3.8,3.6C175.7,331.3,177.4,332.9,179.5,332.9z"/>
	</g>
	<g class="bolso23">	
		<path fill="#fff00000" id="bolsofaixa" d="M209.4,159.8c7.9-0.1,15.8-0.1,23.5-0.1c8.1,0,15.8,0.1,20.7,0.1c3.5,0,5.6,0,7.2-0.1
		c0.1-7.3,0-8.8,0-9.6c0-0.8,0-0.8-0.8-0.9c-0.8,0-2.3-0.1-8.4-0.2c-6.1-0.1-16.6-0.2-24-0.1c-7.4,0-11.6,0.2-14,0.3
		s-3.2,0.1-3.5,0.1c-0.4,0-0.4,0-0.5,4.4C209.5,155.3,209.5,157.4,209.4,159.8z"/>
		<path fill="#fff00000" id="bolso12" d="M224.4,207.3c4.8,0.2,12.8,0.3,18.3,0.2c5.5-0.1,8.6-0.3,10.6-0.8c2-0.5,2.9-1.2,3.8-2
		c0.8-0.9,1.6-1.8,2-3c0.5-1.1,0.7-2.4,0.9-10.3c0.3-7.9,0.6-22.6,0.8-30.7c0-0.3,0-0.7,0-1c-1.6,0.1-3.7,0.1-7.2,0.1
		c-4.9,0-12.7-0.1-20.7-0.1c-7.7,0-15.6,0-23.5,0.1c-0.1,4.5-0.3,10-0.4,15.3c-0.1,8-0.1,15.3,0.1,19.5c0.2,4.2,0.5,5.4,1.2,6.7
		c0.7,1.4,1.6,3,2.6,3.9s2.1,1.2,3.5,1.4C217.8,206.9,219.6,207.1,224.4,207.3z"/>
	</g>	
	<g class="vista_2">
		<path fill="#fff" id="vista2" d="M170.1,246.7c0.2-33.2,0.4-77.2,0.9-110.1c0.5-32.9,1.4-54.6,1.8-67c0.4-12.4,0.3-15.4,0.6-17.5
		c0.3-2.1,1-3.4,1.8-4.3c0.9-0.9,1.9-1.5,2.8-1.9c0.8-0.4,1.4-0.6,2.1-0.8c-0.3-0.3-0.4-0.3-0.6-0.3c-0.3,0-0.8-0.1-1.1,0
		c-0.4,0-0.6,0.2-1.3,0.1s-1.7-0.5-2.3-0.7c-0.6-0.2-0.7-0.3-1-0.1c-0.3,0.2-0.7,0.6-1.4,1.7c-0.7,1.1-1.8,3-2.9,5.6
		c-1.1,2.6-2.3,5.8-3.4,9.4c-0.5,1.5-0.9,3-1.3,4.5c-0.1,4.8-0.3,9.9-0.4,18c-0.2,9.1-0.4,22-0.5,35.3c-0.1,13.3-0.2,27.1-0.2,42.6
		c0,15.4,0,32.5,0.1,56.5c0.1,24,0.4,54.8,0.5,80.6c0.1,25.8,0.2,46.4,0.3,72.5c0.1,26.1,0.4,57.5,0.7,80.1c0.3,21.5,0.5,35,0.8,48
		c0.2,0,0.5,0.1,0.8,0.1c0.6,0,1.4,0,1.8-0.1c0.2,0,0.2,0,0.3,0c0-9.4,0.1-19.4,0.2-36c0.1-18,0.3-43.7,0.3-68
		c0.1-24.3,0-47.1,0.1-69.8C169.7,302.4,169.9,280,170.1,246.7z"/>
	</g>	
	<g class="vista">
		<path fill="#fff00000" id="vista3" d="M179.4,390.2c-2,0-3.7-1.6-3.7-3.6c0-2,1.6-3.6,3.7-3.6s3.7,1.6,3.7,3.6
		C183.1,388.6,181.4,390.2,179.4,390.2z M169.3,462.9c-0.1,16.6-0.1,26.5-0.2,36c0.1,0,0.1,0.1,0.2,0.2c0.1,0.2,0.3,0.6,2.3,0.8
		c2,0.2,5.6,0.2,9,0.2c3.4,0,6.5,0,8.2-0.1c1.4-0.1,1.8-0.1,2-0.2c0.3-24,0.6-48,0.7-70.9c0.1-23.4-0.1-45.6,0-76.5
		c0.1-30.8,0.6-70.3,0.9-101.5c0.4-31.2,0.6-54,0.8-78.2c0.2-24.2,0.3-49.6,0.5-66.6c0.2-16.2,0.6-24.8,1-33
		c-0.6,0.5-0.9,0.6-1.1,0.5c-0.4-0.1-0.7-0.4-1.6-2.7c-0.9-2.2-2.3-6.4-3.7-10.2c-0.9-2.5-1.9-4.8-2.8-6.8
		c-0.5,1.4-1.9,2.4-3.5,2.4c-2,0-3.7-1.6-3.7-3.6c0-2,1.6-3.6,3.7-3.6c0.4,0,0.7,0,1,0.1c-1-1.7-2-2.8-2.5-3.4
		c-0.2-0.3-0.4-0.4-0.5-0.6c-0.6,0.2-1.3,0.5-2.1,0.8c-0.9,0.4-2,1-2.8,1.9c-0.9,0.9-1.5,2.1-1.8,4.3c-0.3,2.1-0.2,5.2-0.6,17.5
		c-0.4,12.4-1.3,34.1-1.8,67c-0.5,32.9-0.7,76.9-0.9,110.1c-0.2,33.2-0.4,55.7-0.5,78.3c-0.1,22.7,0,45.5-0.1,69.8
		C169.5,419.2,169.4,444.9,169.3,462.9z M179.5,332.9c-2.1,0-3.8-1.6-3.8-3.6c0-2,1.7-3.6,3.8-3.6c2.1,0,3.8,1.6,3.8,3.6
		C183.3,331.3,181.6,332.9,179.5,332.9z M183.6,270.2c0,2-1.7,3.7-3.8,3.7c-2.1,0-3.8-1.6-3.8-3.7c0-2,1.7-3.7,3.8-3.7
		C181.9,266.5,183.6,268.2,183.6,270.2z M183.8,209.6c0,2-1.7,3.7-3.8,3.7c-2.1,0-3.8-1.6-3.8-3.7c0-2,1.7-3.7,3.8-3.7
		C182.1,205.9,183.8,207.6,183.8,209.6z M184.6,147.9c0,2.1-1.7,3.7-3.7,3.7c-2.1,0-3.7-1.7-3.7-3.7s1.7-3.7,3.7-3.7
		C183,144.2,184.6,145.8,184.6,147.9z M185.1,94.1c0,2.1-1.7,3.8-3.9,3.8c-2.1,0-3.9-1.7-3.9-3.8c0-2.1,1.7-3.8,3.9-3.8
		C183.4,90.3,185.1,92,185.1,94.1z"/>
	</g>
</svg>